<svg width="35" height="36" viewBox="0 0 35 36" fill="none" xmlns="http://www.w3.org/2000/svg">
<path d="M33.5417 15.7937H4.44865L15.5889 3.06085C16.1722 2.39411 16.1948 1.28637 15.6392 0.586377C15.0843 -0.112739 14.1611 -0.140739 13.5771 0.526003L0.854583 15.0683C0.304062 15.7298 0 16.6083 0 17.5437C0 18.4782 0.304062 19.3575 0.880104 20.0479L13.5778 34.5605C13.86 34.8833 14.2217 35.0435 14.5833 35.0435C14.9683 35.0435 15.3533 34.8615 15.6399 34.5001C16.1955 33.8001 16.1729 32.6932 15.5896 32.0265L4.40271 19.2936H33.5417C34.3467 19.2936 35 18.5097 35 17.5437C35 16.5777 34.3467 15.7937 33.5417 15.7937Z" fill="#00204C"/>
</svg>
