<svg width="55" height="55" viewBox="0 0 55 55" fill="none" xmlns="http://www.w3.org/2000/svg">
<g clip-path="url(#clip0)">
<path d="M51.4744 9.87178H3.52569C1.57803 9.87178 0 8.29375 0 6.34619C0 4.39863 1.57803 2.8205 3.52569 2.8205H51.4744C53.422 2.8205 55 4.39852 55 6.34619C55 8.29386 53.422 9.87178 51.4744 9.87178Z" fill="#00204C"/>
<path d="M31.7308 31.0257H3.52569C1.57803 31.0257 0 29.4476 0 27.5C0 25.5525 1.57803 23.9743 3.52569 23.9743H31.7308C33.6784 23.9743 35.2565 25.5524 35.2565 27.5C35.2565 29.4477 33.6784 31.0257 31.7308 31.0257Z" fill="#00204C"/>
<path d="M51.4744 31.0257H45.8333C43.8858 31.0257 42.3076 29.4476 42.3076 27.5C42.3076 25.5523 43.8856 23.9743 45.8333 23.9743H51.4744C53.4219 23.9743 54.9999 25.5523 54.9999 27.5C54.9999 29.4476 53.4219 31.0257 51.4744 31.0257Z" fill="#00204C"/>
<path d="M51.4744 52.1795H3.52569C1.57803 52.1795 0 50.6014 0 48.6538C0 46.7063 1.57803 45.1281 3.52569 45.1281H51.4744C53.422 45.1281 55 46.7062 55 48.6538C55 50.6014 53.422 52.1795 51.4744 52.1795Z" fill="#00204C"/>
</g>
<defs>
<clipPath id="clip0">
<rect width="55" height="55" fill="white"/>
</clipPath>
</defs>
</svg>
