<svg width="28" height="28" viewBox="0 0 28 28" fill="none" xmlns="http://www.w3.org/2000/svg">
<path d="M27.0536 5.51572L18.5697 14.0004L27.0536 22.4847C28.3155 23.7471 28.3155 25.7921 27.0536 27.0545C26.4231 27.685 25.5964 28.0005 24.7702 28.0005C23.9425 28.0005 23.1158 27.6855 22.4858 27.0545L14.0001 18.5692L5.51501 27.0544C4.88456 27.6849 4.05783 28.0004 3.23085 28.0004C2.40411 28.0004 1.57794 27.6854 0.94693 27.0544C-0.315 25.7926 -0.315 23.7476 0.94693 22.4847L9.43054 14.0004L0.946448 5.51572C-0.315483 4.2538 -0.315483 2.20838 0.946448 0.946454C2.20814 -0.314508 4.25235 -0.314508 5.51452 0.946454L14 9.43116L22.4848 0.946454C23.7472 -0.314508 25.7917 -0.314508 27.0531 0.946454C28.3155 2.20838 28.3155 4.2538 27.0536 5.51572Z" fill="#44535E"/>
</svg>
