<svg width="116" height="116" viewBox="0 0 116 116" fill="none" xmlns="http://www.w3.org/2000/svg">
<path d="M15.6822 0.38916C7.08327 0.38916 0 7.48519 0 16.0996V99.8885C0 108.503 7.08327 115.599 15.6822 115.599H99.3204C107.919 115.599 115.003 108.503 115.003 99.8885V16.0996C115.003 7.48519 107.919 0.38916 99.3204 0.38916H15.6822ZM83.6382 16.0996H99.3204V31.81H83.6382V16.0996ZM57.5013 37.0468C69.1112 37.0468 78.4108 46.3632 78.4108 57.994C78.4108 69.6249 69.1112 78.9413 57.5013 78.9413C45.8913 78.9413 36.5917 69.6249 36.5917 57.994C36.5917 46.3632 45.8913 37.0468 57.5013 37.0468ZM10.4548 47.5204H27.9339C26.7761 50.7904 26.1369 54.3377 26.1369 57.994C26.1369 75.2853 40.2411 89.4149 57.5013 89.4149C74.7614 89.4149 88.8656 75.2853 88.8656 57.994C88.8656 54.3377 88.2265 50.7904 87.0687 47.5204H104.548V99.8885C104.548 102.847 102.274 105.125 99.3204 105.125H15.6822C12.7285 105.125 10.4548 102.847 10.4548 99.8885V47.5204Z"/>
</svg>
