<svg width="40" height="40" viewBox="0 0 40 40" fill="none" xmlns="http://www.w3.org/2000/svg">
<rect width="40" height="40" transform="matrix(1 0 0 -1 0 40)" fill="#E0E5E6"/>
<path d="M17.7402 20.087L21.5185 24.0212C21.6423 24.15 21.8427 24.1498 21.9663 24.0206C22.0898 23.8913 22.0895 23.6819 21.9657 23.553L18.4122 19.853L21.9658 16.1529C22.0896 16.024 22.0899 15.8147 21.9664 15.6855C21.9045 15.6207 21.8233 15.5883 21.7422 15.5883C21.6612 15.5883 21.5804 15.6204 21.5185 15.6848L17.7402 19.6189C17.6805 19.6808 17.6471 19.7651 17.6471 19.853C17.6471 19.9408 17.6806 20.025 17.7402 20.087Z" fill="#00204C"/>
</svg>
