<svg width="121" height="121" viewBox="0 0 121 121" fill="none" xmlns="http://www.w3.org/2000/svg">
<rect width="121" height="121" transform="matrix(1 0 0 -1 0 121)" fill="#E0E5E6"/>
<path d="M53.6639 60.7633L65.0934 72.6643C65.4679 73.054 66.0741 73.0533 66.448 72.6623C66.8215 72.2713 66.8206 71.6379 66.4461 71.2479L55.6969 60.0553L66.4464 48.8627C66.8209 48.4727 66.8219 47.8397 66.4484 47.4486C66.261 47.2526 66.0155 47.1546 65.7699 47.1546C65.5251 47.1546 65.2805 47.2519 65.0934 47.4466L53.6639 59.3472C53.4835 59.5346 53.3823 59.7896 53.3823 60.0553C53.3823 60.3209 53.4838 60.5756 53.6639 60.7633Z" fill="#00204C"/>
</svg>
