<svg width="80" height="80" viewBox="0 0 80 80" fill="none" xmlns="http://www.w3.org/2000/svg">
<rect width="80" height="80" transform="matrix(1 0 0 -1 0 80)" fill="#E0E5E6"/>
<path d="M35.4802 40.1741L43.0369 48.0424C43.2845 48.3001 43.6854 48.2997 43.9325 48.0411C44.1795 47.7826 44.1789 47.3638 43.9313 47.106L36.8244 39.7059L43.9315 32.3059C44.1791 32.048 44.1797 31.6295 43.9328 31.3709C43.8089 31.2413 43.6466 31.1765 43.4842 31.1765C43.3223 31.1765 43.1607 31.2409 43.037 31.3696L35.4802 39.2378C35.361 39.3617 35.2941 39.5303 35.2941 39.7059C35.2941 39.8816 35.3612 40.0499 35.4802 40.1741Z" fill="#00204C"/>
</svg>
