<svg width="36" height="35" viewBox="0 0 36 35" fill="none" xmlns="http://www.w3.org/2000/svg">
<path d="M1.77975 15.7502H30.8728L19.7326 3.01739C19.1492 2.35065 19.1266 1.24291 19.6822 0.54292C20.2371 -0.156196 21.1603 -0.184196 21.7443 0.482546L34.4668 15.0249C35.0173 15.6864 35.3214 16.5649 35.3214 17.5002C35.3214 18.4347 35.0173 19.3141 34.4413 20.0044L21.7436 34.517C21.4614 34.8399 21.0997 35 20.7381 35C20.3531 35 19.9681 34.818 19.6815 34.4566C19.1259 33.7566 19.1485 32.6498 19.7318 31.983L30.9187 19.2502H1.77975C0.974747 19.2502 0.321411 18.4662 0.321411 17.5002C0.321411 16.5342 0.974747 15.7502 1.77975 15.7502Z" fill="#00204C"/>
</svg>
