<svg width="80" height="80" viewBox="0 0 80 80" fill="none" xmlns="http://www.w3.org/2000/svg">
<rect width="80" height="80" transform="matrix(1 0 0 -1 0 80)" fill="#E0E5E6"/>
<path d="M44.5198 40.1741L36.9631 48.0424C36.7155 48.3001 36.3146 48.2997 36.0675 48.0411C35.8205 47.7826 35.8211 47.3638 36.0687 47.106L43.1756 39.7059L36.0685 32.3059C35.8209 32.048 35.8203 31.6295 36.0672 31.3709C36.1911 31.2413 36.3534 31.1765 36.5158 31.1765C36.6777 31.1765 36.8393 31.2409 36.963 31.3696L44.5198 39.2378C44.639 39.3617 44.7059 39.5303 44.7059 39.7059C44.7059 39.8816 44.6388 40.0499 44.5198 40.1741Z" fill="#00204C"/>
</svg>
