<svg width="121" height="121" viewBox="0 0 121 121" fill="none" xmlns="http://www.w3.org/2000/svg">
<rect width="121" height="121" transform="matrix(1 0 0 -1 0 121)" fill="#E0E5E6"/>
<path d="M67.3361 60.7633L55.9066 72.6643C55.5321 73.054 54.9258 73.0533 54.552 72.6623C54.1784 72.2713 54.1794 71.6379 54.5539 71.2479L65.3031 60.0553L54.5535 48.8627C54.1791 48.4727 54.1781 47.8397 54.5516 47.4486C54.739 47.2526 54.9845 47.1546 55.23 47.1546C55.4749 47.1546 55.7195 47.2519 55.9065 47.4466L67.3361 59.3472C67.5164 59.5346 67.6177 59.7896 67.6177 60.0553C67.6177 60.3209 67.5162 60.5756 67.3361 60.7633Z" fill="#00204C"/>
</svg>
