<svg width="40" height="40" viewBox="0 0 40 40" fill="none" xmlns="http://www.w3.org/2000/svg">
<rect width="40" height="40" transform="matrix(1 0 0 -1 0 40)" fill="#E0E5E6"/>
<path d="M22.2598 20.087L18.4815 24.0212C18.3577 24.15 18.1573 24.1498 18.0337 24.0206C17.9102 23.8913 17.9105 23.6819 18.0343 23.553L21.5878 19.853L18.0342 16.1529C17.9104 16.024 17.9101 15.8147 18.0336 15.6855C18.0955 15.6207 18.1767 15.5883 18.2578 15.5883C18.3388 15.5883 18.4196 15.6204 18.4815 15.6848L22.2598 19.6189C22.3195 19.6808 22.3529 19.7651 22.3529 19.853C22.3529 19.9408 22.3194 20.025 22.2598 20.087Z" fill="#00204C"/>
</svg>
