<svg width="81" height="81" viewBox="0 0 81 81" fill="none" xmlns="http://www.w3.org/2000/svg">
<rect width="80.3284" height="80.3284" rx="40.1642" transform="matrix(1.19249e-08 -1 -1 -1.19249e-08 80.3284 80.3281)" fill="#FFEFEF"/>
<path d="M40.234 35.8067L48.1347 43.3944C48.3934 43.643 48.3929 44.0455 48.1333 44.2937C47.8738 44.5417 47.4533 44.541 47.1944 44.2924L39.7639 37.1563L32.3335 44.2926C32.0746 44.5412 31.6543 44.5419 31.3947 44.2939C31.2646 44.1695 31.1995 44.0065 31.1995 43.8435C31.1995 43.681 31.2642 43.5186 31.3934 43.3944L39.2939 35.8067C39.4183 35.6869 39.5875 35.6197 39.7639 35.6197C39.9403 35.6197 40.1094 35.6871 40.234 35.8067Z" fill="#00204C"/>
</svg>
