<svg width="27" height="27" viewBox="0 0 27 27" fill="none" xmlns="http://www.w3.org/2000/svg">
<path d="M23.0445 3.95261C17.7717 -1.31865 9.22389 -1.31739 3.95262 3.95551C-1.31866 9.22842 -1.31739 17.7761 3.95552 23.0474C9.22842 28.3187 17.7761 28.3174 23.0474 23.0445C25.579 20.5121 27.0008 17.0778 27 13.4971C26.9993 9.91697 25.5764 6.48376 23.0445 3.95261ZM20.4453 18.8053C20.4447 18.8059 20.4441 18.8065 20.4435 18.8071V18.8026L19.7595 19.4821C18.8749 20.3779 17.5865 20.7465 16.362 20.4541C15.1282 20.1239 13.9554 19.5982 12.888 18.8971C11.8963 18.2633 10.9772 17.5224 10.1475 16.6876C9.38404 15.9298 8.69818 15.0976 8.09996 14.2036C7.44563 13.2417 6.92773 12.1937 6.56096 11.0896C6.14051 9.79257 6.48893 8.36932 7.46098 7.41314L8.26196 6.61216C8.48466 6.38846 8.84652 6.38767 9.07017 6.61037C9.07075 6.61095 9.07138 6.61153 9.07196 6.61216L11.6009 9.14114C11.8246 9.36384 11.8254 9.7257 11.6027 9.94935C11.6022 9.94993 11.6016 9.95051 11.6009 9.95114L10.1159 11.4361C9.68985 11.8576 9.63627 12.5273 9.98996 13.0112C10.5271 13.7483 11.1214 14.4419 11.7675 15.0857C12.4878 15.8091 13.2708 16.4671 14.1075 17.0522C14.5909 17.3894 15.2463 17.3325 15.6644 16.9172L17.0999 15.4592C17.3226 15.2355 17.6845 15.2347 17.9081 15.4574C17.9087 15.458 17.9093 15.4586 17.9099 15.4592L20.4434 17.9972C20.6672 18.2198 20.668 18.5816 20.4453 18.8053Z" fill="#00204C"/>
</svg>
